<?xml version="1.0" standalone="no"?><!DOCTYPE svg PUBLIC "-//W3C//DTD SVG 1.1//EN" "http://www.w3.org/Graphics/SVG/1.1/DTD/svg11.dtd"><svg t="1614934520153" class="icon" viewBox="0 0 1024 1024" version="1.1" xmlns="http://www.w3.org/2000/svg" p-id="12244" width="32" height="32" xmlns:xlink="http://www.w3.org/1999/xlink"><defs><style type="text/css"></style></defs><path d="M642.99532 426.533541c27.157566 0 51.120125-20.767551 51.120125-46.327613-1.597504-25.560062-23.962559-46.327613-51.120125-46.327613h-6.390016l52.717629-47.925117c11.182527-9.585023 15.975039-22.365055 15.975039-36.74259s-6.390016-27.157566-15.975039-36.742589c-22.365055-20.767551-57.51014-20.767551-81.472699 0l-95.850234 89.460218-97.447738-87.862714c-22.365055-20.767551-57.51014-20.767551-81.472699 0-11.182527 9.585023-15.975039 22.365055-15.975039 36.742589 0 14.377535 6.390016 27.157566 15.975039 36.74259l52.717629 47.925117h-15.975039c-27.157566 0-49.522621 19.170047-51.120125 46.327613 1.597504 25.560062 23.962559 46.327613 51.120125 46.327613h84.667707v15.975039h-84.667707c-17.572543-3.195008-33.547582 4.792512-43.132605 19.170047-9.585023 14.377535-9.585023 31.950078 0 47.925117 9.585023 14.377535 25.560062 22.365055 44.730109 22.365055h84.667706v47.925117c0 23.962559 22.365055 43.132605 47.925117 43.132605h7.98752c25.560062 0 46.327613-19.170047 47.925117-43.132605v-47.925117h84.667707c17.572543 1.597504 35.145086-7.98752 44.730109-22.365055 9.585023-14.377535 9.585023-31.950078 0-47.925117-9.585023-14.377535-25.560062-22.365055-44.730109-22.365055H559.925117v-15.975039h83.070203z m0 0M604.655226 723.669267l68.692668-38.340094c-3.195008-3.195008-6.390016-4.792512-9.585023-6.390015-30.352574-9.585023-63.900156-7.98752-94.252731 4.792511l-43.132605 23.962559c23.962559 9.585023 49.522621 15.975039 76.680187 19.170047 0-1.597504 0-3.195008 1.597504-3.195008" fill="#4A3939" p-id="12245"></path><path d="M952.911076 709.291732c-6.390016-4.792512-14.377535-9.585023-22.365054-11.182528-17.572543-4.792512-36.74259-4.792512-54.315133 0L754.820593 766.801872c-6.390016 3.195008-15.975039 1.597504-20.767551-4.792512-1.597504-3.195008-3.195008-6.390016-1.597504-9.585023 1.597504-3.195008 3.195008-6.390016 6.390016-7.98752l81.472699-44.730109c-27.157566-15.975039-59.107644-22.365055-89.460219-17.572543l-87.862714 49.522621c38.340094-1.597504 70.290172 27.157566 71.887675 63.900156 0 19.170047-9.585023 36.74259-23.962558 49.522621-14.377535 12.780031-33.547582 19.170047-54.315133 19.170047h-153.360374c-3.195008 0-6.390016-1.597504-7.98752-1.597504l-97.447738-57.51014c-3.195008-1.597504-4.792512-4.792512-6.390015-7.98752 0-3.195008 0-6.390016 1.597504-9.585023 4.792512-6.390016 14.377535-7.98752 20.76755-3.195008l94.25273 55.912636h148.567863c12.780031 1.597504 23.962559-3.195008 33.547582-11.182527 9.585023-7.98752 14.377535-19.170047 15.975039-30.352574-1.597504-11.182527-6.390016-20.767551-15.975039-28.75507-9.585023-6.390016-20.767551-9.585023-31.950078-9.585024-54.315133 1.597504-108.630265-11.182527-156.555382-36.742589v-1.597504c-9.585023-4.792512-19.170047-11.182527-28.75507-19.170047-59.107644-57.51014-148.567863-76.680187-226.845554-47.925117L56.711388 720.474259c-7.98752 3.195008-12.780031 7.98752-15.975039 14.377535-3.195008 6.390016-1.597504 14.377535 1.597504 20.767551l97.447738 190.102964c7.98752 12.780031 23.962559 19.170047 39.937598 12.780031l86.26521-35.145086 201.285492 81.472699c25.560062 11.182527 52.717629 17.572543 81.472699 19.170047 20.767551 0 43.132605-6.390016 59.107644-17.572543l362.633385-214.065523c7.98752-4.792512 12.780031-12.780031 12.780032-22.365054 0-25.560062-11.182527-46.327613-30.352575-60.705148M171.731669 631.014041c-7.98752 0-17.572543-3.195008-22.365054-11.182528-49.522621-63.900156-75.082683-140.580343-75.082684-220.455538C80.673947 177.322933 275.569423 0 512 6.390016 746.833073 0 943.326053 177.322933 949.716069 399.375975c0 76.680187-23.962559 150.165367-70.290172 212.468019-7.98752 11.182527-23.962559 14.377535-36.74259 6.390015-6.390016-3.195008-9.585023-7.98752-11.182527-14.377535-1.597504-6.390016 0-12.780031 3.195008-17.572543C874.633385 530.371295 895.400936 466.471139 895.400936 399.375975 890.608424 204.480499 718.078003 49.522621 512 54.315133 304.324493 49.522621 131.794072 204.480499 127.00156 399.375975c0 70.290172 23.962559 137.385335 67.095164 194.895476 3.195008 4.792512 4.792512 11.182527 4.792512 17.572543-1.597504 6.390016-4.792512 11.182527-11.182528 14.377535-6.390016 3.195008-11.182527 4.792512-15.975039 4.792512" fill="#4A3939" p-id="12246"></path></svg>