<?xml version="1.0" standalone="no"?><!DOCTYPE svg PUBLIC "-//W3C//DTD SVG 1.1//EN" "http://www.w3.org/Graphics/SVG/1.1/DTD/svg11.dtd"><svg t="1614934557578" class="icon" viewBox="0 0 1024 1024" version="1.1" xmlns="http://www.w3.org/2000/svg" p-id="13276" width="32" height="32" xmlns:xlink="http://www.w3.org/1999/xlink"><defs><style type="text/css"></style></defs><path d="M502.429907 636.411215c-31.900312 0-59.015576-25.520249-60.610592-57.420561v-31.900311h-66.990655c-22.330218 1.595016-44.660436-9.570093-55.825545-28.710281-12.760125-19.140187-12.760125-43.065421 0-62.205607 6.380062-9.570093 12.760125-15.950156 22.330218-20.735203-19.140187-11.165109-31.900312-28.71028-31.900311-51.040498 1.595016-27.115265 19.140187-49.445483 43.06542-57.420561L326.978193 303.05296c-14.35514-12.760125-20.735202-28.71028-20.735202-47.850468s7.975078-35.090343 22.330218-47.850467c28.71028-25.520249 71.775701-25.520249 98.890965 0l84.535826 76.560748 84.535826-76.560748c28.71028-25.520249 71.775701-25.520249 100.485981 0 14.35514 12.760125 22.330218 28.71028 22.330218 47.850467 0 17.545171-7.975078 35.090343-22.330218 47.850468l-27.115265 25.520249c20.735202 9.570093 36.685358 30.305296 36.685358 54.230529 0 22.330218-12.760125 41.470405-31.900311 52.635514 9.570093 4.785047 17.545171 12.760125 22.330218 20.735203 12.760125 19.140187 12.760125 43.065421 0 62.205607-12.760125 19.140187-33.495327 30.305296-57.420561 28.710281h-66.990654v31.900311c-1.595016 31.900312-28.71028 57.420561-60.610592 57.420561h-9.570093z m-44.660437-119.626168h15.950156v62.205607c0 14.35514 14.35514 25.520249 30.305296 25.520249h7.975078c15.950156 0 30.305296-11.165109 30.305296-27.115264v-62.205608H639.601246c12.760125 0 23.925234-4.785047 30.305296-14.35514 6.380062-9.570093 6.380062-20.735202 0-28.71028-6.380062-9.570093-17.545171-15.950156-28.71028-14.355141h-98.890966v-46.255451h100.485981c17.545171 0 33.495327-12.760125 33.495327-30.305296 0-15.950156-15.950156-28.71028-33.495327-28.710281h-47.850467l81.345794-73.370716c6.380062-6.380062 11.165109-14.35514 11.165109-23.925234s-4.785047-17.545171-11.165109-23.925233c-15.950156-14.35514-41.470405-14.35514-59.015576 0l-105.271028 95.700934-105.271028-94.105919c-15.950156-14.35514-41.470405-14.35514-59.015576 0-6.380062 6.380062-11.165109 14.35514-11.165109 23.925234s4.785047 17.545171 11.165109 23.925233l81.345794 73.370717h-55.825545c-17.545171 0-33.495327 12.760125-33.495327 28.71028s15.950156 28.71028 33.495327 28.710281h98.890966v46.255451h-98.890966c-12.760125 0-23.925234 4.785047-30.305296 14.355141-6.380062 9.570093-6.380062 20.735202 0 28.71028 6.380062 9.570093 17.545171 14.35514 28.71028 14.35514l86.130841 1.595016zM606.105919 736.897196l-7.975078-1.595015c-27.115265-3.190031-54.23053-9.570093-78.155763-19.140187l-30.305296-12.760125 70.180685-39.875389c31.900312-14.35514 68.58567-15.950156 103.676013-4.785047l1.595015 1.595016c4.785047 3.190031 9.570093 4.785047 12.760125 9.570093l15.950156 14.35514-82.94081 46.255452s0 1.595016-1.595016 1.595016l-3.190031 4.785046z m-3.190031-20.735202l6.380062 14.35514s1.595016 0 1.595016-1.595016l-7.975078-12.760124z m-39.87539-19.140187c9.570093 3.190031 20.735202 4.785047 30.305296 6.380062l36.685359-20.735202c-19.140187-1.595016-38.280374 0-57.420561 7.975078l-9.570094 6.380062z" fill="#767373" p-id="13277"></path><path d="M550.280374 1024h-3.190031c-30.305296-1.595016-59.015576-7.975078-84.535826-20.735202L272.747664 926.70405l-78.155764 31.900311c-20.735202 9.570093-46.255452 0-57.42056-19.140187l-95.700935-185.021806c-6.380062-9.570093-7.975078-20.735202-3.190031-31.900312s12.760125-19.140187 23.925233-22.330218L224.897196 631.626168c82.94081-28.71028 177.046729-9.570093 239.252337 51.040499 6.380062 6.380062 14.35514 11.165109 23.925233 15.950155l3.190032 3.190032c30.305296 15.950156 65.395639 27.115265 100.485981 30.305296l129.196261-71.775701h3.190032c33.495327-4.785047 68.58567 1.595016 97.29595 19.140187l19.140187 11.165109 23.925233-12.760125c20.735202-4.785047 41.470405-4.785047 62.205608 0 12.760125 4.785047 20.735202 9.570093 27.115265 14.35514 22.330218 17.545171 35.090343 41.470405 36.685358 68.58567 0 14.35514-7.975078 28.71028-20.735203 36.685358L614.080997 1004.859813c-19.140187 12.760125-41.470405 19.140187-63.800623 19.140187z m-279.127726-129.196262l202.566978 81.345795c23.925234 11.165109 47.850467 17.545171 73.370717 17.545171 17.545171 0 35.090343-4.785047 47.850467-14.35514l1.595016-1.595016 354.093457-208.94704c3.190031-1.595016 4.785047-4.785047 4.785047-7.975078-1.595016-17.545171-9.570093-33.495327-23.925233-44.660436-6.380062-4.785047-12.760125-7.975078-19.140187-9.570094-12.760125-3.190031-28.71028-3.190031-43.065421 0l-116.436137 65.395639c-11.165109 6.380062-23.925234 4.785047-33.495327-1.595016 1.595016 4.785047 1.595016 9.570093 1.595015 14.355141-1.595016 23.925234-11.165109 46.255452-28.71028 60.610591-17.545171 15.950156-39.875389 22.330218-63.800623 22.330219H480.099688c-6.380062 0-11.165109-1.595016-15.950155-4.785047l-95.700935-55.825545c-6.380062-3.190031-11.165109-11.165109-12.760124-17.545172-1.595016-7.975078 0-15.950156 4.785046-22.330218 9.570093-12.760125 27.115265-15.950156 39.87539-7.975078l87.725856 52.635514h140.361371c9.570093 0 17.545171-1.595016 22.330218-6.380062 4.785047-4.785047 9.570093-11.165109 9.570094-17.545171-1.595016-6.380062-4.785047-11.165109-9.570094-15.950156-6.380062-4.785047-12.760125-6.380062-20.735202-6.380062-55.825545 1.595016-110.056075-9.570093-157.906542-35.090343h-9.570094l-1.595015-6.380062c-7.975078-4.785047-15.950156-11.165109-23.925234-17.545172-54.23053-52.635514-133.981308-68.58567-205.757009-44.660436l-157.906542 66.990654c-3.190031 1.595016-4.785047 3.190031-6.380063 6.380063-1.595016 1.595016-1.595016 4.785047 0 6.380062l95.700935 185.021807c3.190031 6.380062 11.165109 7.975078 17.545171 4.785047l90.915888-36.685359z m116.436137-116.436137zM740.087227 749.657321z m-60.610591-31.900312c11.165109 6.380062 22.330218 15.950156 30.305295 25.52025v-3.190032c1.595016-7.975078 7.975078-14.35514 14.355141-17.545171l51.040498-28.71028c-15.950156-4.785047-31.900312-4.785047-47.850467-3.190031l-47.850467 27.115264z" fill="#767373" p-id="13278"></path><path d="M178.641745 642.791277c-12.760125 0-25.520249-6.380062-33.495328-15.950156-51.040498-65.395639-76.560748-143.551402-76.560747-224.897196C74.965732 175.451713 274.342679-3.190031 512 3.190031c237.657321-6.380062 435.439252 173.856698 441.819315 398.753894 0 78.155763-23.925234 153.121495-71.775701 216.922119-12.760125 17.545171-36.685358 22.330218-55.825545 11.165109-9.570093-4.785047-15.950156-14.35514-19.140187-23.925234-3.190031-11.165109 0-20.735202 6.380062-30.305296 36.685358-51.040498 57.420561-111.65109 57.420561-173.856698C866.093458 220.11215 704.996885 76.560748 512 79.750779 317.4081 76.560748 157.906542 220.11215 151.52648 401.943925c0 63.800623 20.735202 126.006231 62.205607 178.641745 6.380062 7.975078 9.570093 19.140187 6.380063 30.305296-1.595016 11.165109-9.570093 19.140187-17.545172 25.520249-6.380062 4.785047-14.35514 6.380062-23.925233 6.380062 1.595016 0 1.595016 0 0 0zM502.429907 33.495327C285.507788 33.495327 106.866044 197.781931 100.485981 401.943925c0 73.370717 23.925234 145.146417 70.180686 205.75701 1.595016 3.190031 4.785047 3.190031 9.570093 4.785046 1.595016 0 4.785047 0 6.380062-1.595015 1.595016-1.595016 3.190031-3.190031 3.190032-4.785047 0-1.595016 0-3.190031-1.595016-4.785047-43.065421-59.015576-66.990654-127.601246-66.990654-199.376947C126.006231 202.566978 301.457944 44.660436 512 49.445483c208.94704-4.785047 384.398754 153.121495 390.778816 352.498442 0 68.58567-22.330218 135.576324-62.205607 191.401869-1.595016 1.595016-1.595016 3.190031-1.595016 4.785047 0 1.595016 1.595016 3.190031 3.190031 4.785047 4.785047 3.190031 12.760125 1.595016 15.950156-3.190031 43.065421-59.015576 65.395639-127.601246 65.395639-197.781932-6.380062-207.352025-191.401869-373.233645-411.514019-368.448598h-9.570093z" fill="#767373" p-id="13279"></path></svg>