<?xml version="1.0" standalone="no"?><!DOCTYPE svg PUBLIC "-//W3C//DTD SVG 1.1//EN" "http://www.w3.org/Graphics/SVG/1.1/DTD/svg11.dtd"><svg t="1614934463748" class="icon" viewBox="0 0 1024 1024" version="1.1" xmlns="http://www.w3.org/2000/svg" p-id="10885" width="32" height="32" xmlns:xlink="http://www.w3.org/1999/xlink"><defs><style type="text/css"></style></defs><path d="M878.4 129.6H689.6c-20.8 0-38.4-12.8-43.2-32-16-56-70.4-96-132.8-96-62.4 0-116.8 40-132.8 96-4.8 19.2-22.4 32-43.2 32H148.8c-17.6 0-35.2 6.4-48 17.6C86.4 160 80 176 80 193.6v764.8c0 17.6 6.4 33.6 19.2 44.8 12.8 12.8 30.4 19.2 48 17.6h729.6c17.6 0 35.2-6.4 48-17.6 12.8-12.8 20.8-28.8 19.2-44.8V193.6c0-17.6-6.4-33.6-19.2-44.8-11.2-12.8-28.8-19.2-46.4-19.2z m-411.2 0h91.2c6.4 0 12.8 1.6 16 6.4 4.8 4.8 6.4 9.6 6.4 16s-1.6 11.2-6.4 16c-4.8 4.8-9.6 6.4-16 6.4h-91.2c-6.4 0-12.8-1.6-16-6.4-4.8-4.8-6.4-9.6-6.4-16s1.6-11.2 6.4-16c4.8-4.8 11.2-6.4 16-6.4z m137.6 659.2H240c-12.8 0-22.4-9.6-22.4-20.8 0-11.2 9.6-20.8 22.4-20.8h364.8c12.8 0 22.4 9.6 22.4 20.8 0 11.2-9.6 20.8-22.4 20.8z m91.2-192H240c-12.8 0-22.4-9.6-22.4-20.8 0-11.2 9.6-20.8 22.4-20.8h456c12.8 0 22.4 9.6 22.4 20.8 0 11.2-9.6 20.8-22.4 20.8z m91.2-190.4H240c-12.8 0-22.4-9.6-22.4-20.8 0-11.2 9.6-20.8 22.4-20.8h547.2c12.8 0 22.4 9.6 22.4 20.8 0 11.2-9.6 20.8-22.4 20.8z m0 0" fill="#4A3939" p-id="10886"></path></svg>