<?xml version="1.0" standalone="no"?><!DOCTYPE svg PUBLIC "-//W3C//DTD SVG 1.1//EN" "http://www.w3.org/Graphics/SVG/1.1/DTD/svg11.dtd"><svg t="1614934483453" class="icon" viewBox="0 0 1024 1024" version="1.1" xmlns="http://www.w3.org/2000/svg" p-id="11341" width="32" height="32" xmlns:xlink="http://www.w3.org/1999/xlink"><defs><style type="text/css"></style></defs><path d="M158.4 1020.8c-20.8 0-41.6-8-56-22.4-16-14.4-24-35.2-24-56V204.8c0-20.8 8-41.6 24-56 16-14.4 36.8-22.4 57.6-22.4h182.4c12.8 0 24-8 25.6-19.2 17.6-62.4 75.2-104 144-104 67.2 0 126.4 43.2 144 104 3.2 11.2 14.4 19.2 25.6 19.2H864c22.4 0 43.2 8 57.6 22.4 16 14.4 24 35.2 24 56V944c0 20.8-8 41.6-24 56-16 14.4-36.8 22.4-57.6 22.4l-705.6-1.6c1.6 0 1.6 0 0 0zM160 158.4c-12.8 0-25.6 4.8-35.2 12.8-9.6 8-14.4 20.8-14.4 32V944c0 12.8 4.8 24 14.4 32 9.6 8 22.4 12.8 35.2 12.8h705.6c14.4 0 27.2-4.8 36.8-12.8 9.6-8 14.4-20.8 14.4-32V204.8c0-12.8-4.8-24-14.4-32-8-8-20.8-12.8-33.6-12.8H683.2c-27.2 0-51.2-17.6-57.6-43.2-12.8-46.4-59.2-80-112-80s-99.2 33.6-112 80c-6.4 25.6-30.4 43.2-57.6 43.2L160 158.4z m441.6 636.8h-352c-20.8 0-38.4-16-38.4-36.8s17.6-36.8 38.4-36.8h352c20.8 0 38.4 16 38.4 36.8s-17.6 36.8-38.4 36.8z m-352-41.6c-3.2 0-6.4 1.6-6.4 4.8s3.2 4.8 6.4 4.8h352c3.2 0 6.4-1.6 6.4-4.8s-3.2-4.8-6.4-4.8h-352z m440-142.4H248c-20.8 0-38.4-16-38.4-36.8s17.6-36.8 38.4-36.8h441.6c20.8 0 38.4 16 38.4 36.8 0 19.2-17.6 36.8-38.4 36.8z m-441.6-41.6c-3.2 0-6.4 1.6-6.4 4.8s3.2 4.8 6.4 4.8h441.6c3.2 0 6.4-1.6 6.4-4.8s-3.2-4.8-6.4-4.8H248z m529.6-144H248c-20.8 0-38.4-16-38.4-36.8s17.6-36.8 38.4-36.8h529.6c20.8 0 38.4 16 38.4 36.8 0 20.8-17.6 36.8-38.4 36.8zM248 384c-3.2 0-6.4 1.6-6.4 4.8s3.2 4.8 6.4 4.8h529.6c3.2 0 6.4-1.6 6.4-4.8s-3.2-4.8-6.4-4.8H248z m219.2-184c-9.6 0-17.6-3.2-25.6-9.6-8-6.4-11.2-16-11.2-27.2 0-9.6 3.2-19.2 11.2-27.2 6.4-6.4 17.6-9.6 27.2-9.6h88c9.6 0 19.2 3.2 27.2 9.6 8 6.4 11.2 16 11.2 27.2 0 9.6-3.2 19.2-11.2 27.2-8 6.4-17.6 11.2-27.2 9.6h-88-1.6z m1.6-41.6c-1.6 0-3.2 0-4.8 1.6l-1.6 1.6v3.2c0 1.6 0 1.6 1.6 1.6 1.6 1.6 3.2 1.6 4.8 1.6h89.6c3.2 0 4.8 0 4.8-1.6l1.6-1.6v-3.2c0-1.6 0-1.6-1.6-1.6-1.6-1.6-3.2-1.6-4.8-1.6h-89.6z" fill="#767373" p-id="11342"></path></svg>