<?xml version="1.0" standalone="no"?><!DOCTYPE svg PUBLIC "-//W3C//DTD SVG 1.1//EN" "http://www.w3.org/Graphics/SVG/1.1/DTD/svg11.dtd"><svg t="1614934472309" class="icon" viewBox="0 0 1024 1024" version="1.1" xmlns="http://www.w3.org/2000/svg" p-id="11140" width="32" height="32" xmlns:xlink="http://www.w3.org/1999/xlink"><defs><style type="text/css"></style></defs><path d="M416 27.2c57.6-27.2 148.8-27.2 204.8 1.6L974.4 208c56 28.8 52.8 73.6-3.2 100.8L604.8 483.2c-57.6 27.2-150.4 25.6-204.8-1.6L44.8 300.8C-11.2 272-8 227.2 48 200L416 27.2z m518.4 689.6l32 16c54.4 27.2 52.8 72-3.2 99.2L604.8 1003.2c-56 27.2-147.2 25.6-201.6-1.6L54.4 824C0 796.8 1.6 752 57.6 724.8l25.6-12.8 334.4 161.6c54.4 27.2 144 28.8 201.6 1.6l315.2-158.4zM928 459.2l38.4 19.2c54.4 27.2 52.8 72-3.2 99.2L603.2 748.8c-56 27.2-147.2 25.6-201.6-1.6l-347.2-176C0 544 1.6 499.2 57.6 472l28.8-14.4 316.8 163.2c54.4 27.2 144 28.8 201.6 1.6L928 459.2z m0 0" fill="#4A3939" p-id="11141"></path></svg>