<?xml version="1.0" standalone="no"?><!DOCTYPE svg PUBLIC "-//W3C//DTD SVG 1.1//EN" "http://www.w3.org/Graphics/SVG/1.1/DTD/svg11.dtd"><svg t="1614934405704" class="icon" viewBox="0 0 1024 1024" version="1.1" xmlns="http://www.w3.org/2000/svg" p-id="10684" width="32" height="32" xmlns:xlink="http://www.w3.org/1999/xlink"><defs><style type="text/css"></style></defs><path d="M507.2 1024c-38.4 0-78.4-8-107.2-22.4L59.2 828.8c-41.6-20.8-48-48-48-62.4C12.8 742.4 30.4 720 64 704l32-14.4 331.2 160c48 24 131.2 25.6 180.8 1.6l308.8-156.8h8l35.2 17.6c41.6 20.8 48 48 48 62.4 0 25.6-19.2 46.4-51.2 62.4L609.6 1003.2c-28.8 14.4-65.6 20.8-102.4 20.8zM94.4 724.8l-17.6 8c-20.8 9.6-32 22.4-33.6 33.6 0 11.2 11.2 24 30.4 33.6l340.8 172.8c48 24 131.2 25.6 180.8 1.6l347.2-166.4c20.8-9.6 32-22.4 33.6-33.6 0-11.2-11.2-24-30.4-33.6l-24-12.8L622.4 880c-59.2 28.8-153.6 27.2-209.6-1.6L94.4 724.8z m409.6 51.2c-38.4 0-78.4-8-107.2-22.4L59.2 582.4c-41.6-20.8-48-48-48-62.4 0-25.6 19.2-46.4 51.2-62.4l35.2-16 315.2 161.6c48 24 131.2 25.6 180.8 1.6l316.8-160h8l41.6 20.8c41.6 20.8 48 48 48 62.4 0 25.6-19.2 46.4-51.2 62.4L606.4 756.8c-28.8 12.8-65.6 19.2-102.4 19.2zM97.6 476.8l-20.8 9.6c-20.8 9.6-32 22.4-32 33.6 0 11.2 11.2 24 30.4 33.6l337.6 171.2c48 24 131.2 25.6 180.8 1.6L944 560c20.8-9.6 32-22.4 33.6-33.6 0-11.2-11.2-24-30.4-33.6l-30.4-16L608 633.6c-59.2 27.2-153.6 27.2-209.6-1.6L97.6 476.8z m406.4 41.6c-40 0-78.4-8-108.8-22.4L51.2 321.6c-41.6-20.8-48-48-48-62.4 0-25.6 19.2-48 51.2-64L411.2 25.6c59.2-28.8 155.2-27.2 212.8 1.6l344 174.4c41.6 20.8 48 48 48 62.4 0 25.6-19.2 48-51.2 64L608 499.2c-28.8 12.8-67.2 19.2-104 19.2z m-78.4-464L68.8 224c-20.8 9.6-33.6 22.4-33.6 35.2 0 11.2 11.2 24 30.4 33.6l344 174.4c49.6 25.6 134.4 25.6 185.6 1.6l356.8-169.6c20.8-9.6 33.6-22.4 33.6-35.2 0-11.2-11.2-24-30.4-33.6L609.6 56c-48-24-132.8-25.6-184-1.6z" fill="#767373" p-id="10685"></path></svg>