<?xml version="1.0" standalone="no"?><!DOCTYPE svg PUBLIC "-//W3C//DTD SVG 1.1//EN" "http://www.w3.org/Graphics/SVG/1.1/DTD/svg11.dtd"><svg t="1614934535533" class="icon" viewBox="0 0 1024 1024" version="1.1" xmlns="http://www.w3.org/2000/svg" p-id="12690" width="32" height="32" xmlns:xlink="http://www.w3.org/1999/xlink"><defs><style type="text/css"></style></defs><path d="M268.8 265.6h54.4v129.6h-54.4v-129.6z m108.8 0H432v129.6h-54.4v-129.6z m108.8 0h54.4v129.6h-54.4v-129.6z m107.2 0h54.4v129.6h-54.4v-129.6z m108.8 0h54.4v129.6h-54.4v-129.6z m0 0" fill="#4A3939" p-id="12691"></path><path d="M75.2 552V944c0 43.2 36.8 78.4 81.6 78.4h712c44.8 0 81.6-35.2 81.6-78.4V174.4c0-43.2-36.8-78.4-81.6-78.4h-48V4.8h-139.2V96H337.6V4.8h-137.6V96H156.8C112 96 75.2 131.2 75.2 174.4v328m441.6 412.8L480 876.8c20.8-17.6 54.4-17.6 75.2 0l-38.4 38.4z m72-70.4s-68.8-73.6-144 0l-32-30.4s97.6-104 208 0l-32 30.4z m52.8-51.2c-32-33.6-76.8-52.8-124.8-52.8s-92.8 19.2-124.8 52.8l-33.6-32s148.8-150.4 316.8 0l-33.6 32z m64-60.8s-168-171.2-376 0l-33.6-33.6s200-214.4 441.6 0l-32 33.6z m105.6-299.2c0 16-14.4 30.4-30.4 30.4H246.4c-17.6 0-32-14.4-30.4-30.4V214.4c0-8 3.2-16 9.6-20.8 6.4-6.4 14.4-9.6 22.4-9.6h532.8c17.6 0 32 14.4 30.4 30.4v219.2z m0 0" fill="#4A3939" p-id="12692"></path></svg>