<?xml version="1.0" standalone="no"?><!DOCTYPE svg PUBLIC "-//W3C//DTD SVG 1.1//EN" "http://www.w3.org/Graphics/SVG/1.1/DTD/svg11.dtd"><svg t="1614934491776" class="icon" viewBox="0 0 1024 1024" version="1.1" xmlns="http://www.w3.org/2000/svg" p-id="11534" width="32" height="32" xmlns:xlink="http://www.w3.org/1999/xlink"><defs><style type="text/css"></style></defs><path d="M276.8 272h52.8v126.4h-52.8V272z m104 0h52.8v126.4h-52.8V272z m105.6 0h52.8v126.4h-52.8V272z m105.6 0h52.8v126.4H592V272z m104 0h52.8v126.4h-52.8V272z m0 0" fill="#FFFFFF" p-id="11535"></path><path d="M764.8 414.4h-84.8V256h84.8v158.4z m-52.8-32h20.8V288h-20.8v94.4z m-51.2 32H576V256h84.8v158.4z m-52.8-32h20.8V288H608v94.4z m-52.8 32h-84.8V256h84.8v158.4z m-52.8-32h20.8V288h-20.8v94.4z m-52.8 32h-84.8V256h84.8v158.4z m-52.8-32h20.8V288h-20.8v94.4z m-52.8 32h-84.8V256h84.8v158.4z m-51.2-32h20.8V288h-20.8v94.4z" fill="#3E3E3E" p-id="11536"></path><path d="M86.4 550.4v380.8c0 41.6 35.2 75.2 80 76.8h692.8c44.8 0 80-35.2 80-76.8V182.4c0-41.6-35.2-76.8-80-76.8h-46.4V17.6h-136v88H342.4V17.6H208v88h-41.6c-44.8 0-80 35.2-80 76.8v371.2m430.4 350.4L480 867.2c20.8-17.6 51.2-17.6 73.6 0l-36.8 36.8z m68.8-65.6s-52.8-60.8-137.6-1.6l-24-24s89.6-89.6 190.4-1.6l-28.8 27.2zM640 784c-33.6-28.8-76.8-49.6-123.2-49.6-46.4 0-91.2 19.2-123.2 51.2l-32-30.4s145.6-147.2 308.8 0L640 784z m60.8-57.6s-164.8-168-364.8 0l-33.6-32s195.2-209.6 430.4 0l-32 32z m102.4-291.2c0 16-12.8 28.8-30.4 28.8H252.8c-17.6 0-30.4-12.8-30.4-28.8V222.4c0-8 3.2-14.4 9.6-20.8 6.4-4.8 12.8-8 22.4-8h518.4c17.6 0 30.4 12.8 30.4 28.8v212.8z m0 0" fill="#FFFFFF" p-id="11537"></path><path d="M166.4 1024c-52.8 0-96-41.6-96-92.8V182.4c0-49.6 41.6-91.2 94.4-92.8H192V1.6h166.4v88h302.4V1.6h168v88h30.4c52.8 0 96 41.6 96 92.8v748.8c0 49.6-43.2 91.2-96 92.8H166.4z m-64-473.6v380.8c0 33.6 28.8 60.8 64 60.8h692.8c35.2 0 64-27.2 64-60.8V182.4c0-33.6-28.8-60.8-64-60.8h-62.4V33.6h-104v88H326.4V33.6H224v88h-57.6c-35.2 0-64 27.2-64 60.8v368z m414.4 376l-59.2-60.8 12.8-11.2c27.2-22.4 65.6-22.4 92.8 0l12.8 11.2-59.2 60.8z m-9.6-54.4l9.6 9.6 9.6-9.6c-6.4-1.6-12.8-1.6-19.2 0z m76.8-11.2l-11.2-12.8c-1.6-1.6-44.8-48-116.8 1.6l-11.2 8-44.8-44.8 11.2-11.2c1.6-1.6 102.4-99.2 211.2-1.6l12.8 11.2-51.2 49.6z m-64-67.2c30.4 0 51.2 12.8 65.6 22.4l3.2-3.2c-62.4-44.8-116.8-16-140.8 1.6l3.2 3.2c24-17.6 48-24 68.8-24z m-124.8 14.4l-56-52.8 11.2-11.2c1.6-1.6 158.4-155.2 329.6 0l12.8 11.2-52.8 51.2-11.2-9.6c-32-28.8-73.6-46.4-113.6-46.4-41.6 0-83.2 17.6-110.4 46.4l-9.6 11.2z m-9.6-52.8l8 8c33.6-28.8 76.8-44.8 123.2-44.8 43.2 0 86.4 16 123.2 44.8l6.4-6.4c-120-97.6-225.6-30.4-260.8-1.6z m315.2-4.8l-11.2-11.2c-6.4-6.4-156.8-155.2-344 1.6l-11.2 9.6-54.4-52.8 11.2-11.2c1.6-1.6 208-217.6 452.8-1.6l12.8 11.2-56 54.4z m-376-56l11.2 11.2c172.8-134.4 321.6-35.2 363.2 0l8-9.6c-185.6-155.2-340.8-40-382.4-1.6z m-72-212.8c-25.6 0-46.4-20.8-46.4-44.8V222.4c0-11.2 4.8-24 14.4-32 8-8 20.8-12.8 32-12.8h518.4c25.6 0 46.4 20.8 46.4 44.8v214.4c0 24-20.8 44.8-46.4 44.8H252.8zM772.8 208H252.8c-3.2 0-8 1.6-11.2 4.8-3.2 3.2-3.2 6.4-3.2 9.6v214.4c0 8 6.4 12.8 14.4 12.8h518.4c8 0 14.4-6.4 14.4-12.8V222.4c1.6-8-4.8-14.4-12.8-14.4z" fill="#3E3E3E" p-id="11538"></path></svg>