<?xml version="1.0" standalone="no"?><!DOCTYPE svg PUBLIC "-//W3C//DTD SVG 1.1//EN" "http://www.w3.org/Graphics/SVG/1.1/DTD/svg11.dtd"><svg t="1614934501451" class="icon" viewBox="0 0 1025 1024" version="1.1" xmlns="http://www.w3.org/2000/svg" p-id="11734" width="32.03125" height="32" xmlns:xlink="http://www.w3.org/1999/xlink"><defs><style type="text/css"></style></defs><path d="M632 1024l-4.8-12.8c-17.6-46.4-60.8-76.8-110.4-76.8-48 0-92.8 30.4-110.4 75.2l-4.8 14.4-14.4-3.2c-48-12.8-94.4-32-137.6-56l-12.8-8 6.4-12.8c19.2-44.8 9.6-97.6-24-131.2S134.4 768 89.6 788.8l-12.8 6.4-8-12.8c-25.6-43.2-44.8-88-56-136l-3.2-14.4 12.8-4.8c44.8-17.6 75.2-60.8 75.2-110.4 0-48-30.4-92.8-75.2-110.4l-12.8-4.8 3.2-14.4c12.8-48 32-94.4 56-136l8-12.8 12.8 6.4c44.8 19.2 97.6 9.6 131.2-24 35.2-35.2 44.8-86.4 24-131.2l-4.8-14.4 12.8-8c43.2-25.6 88-44.8 136-56l14.4-3.2 4.8 12.8C425.6 65.6 468.8 96 518.4 96c48 0 92.8-30.4 110.4-75.2l4.8-12.8 14.4 3.2c48 12.8 94.4 32 136 56l12.8 8-6.4 12.8c-19.2 44.8-9.6 97.6 24 131.2 33.6 33.6 86.4 44.8 131.2 24l12.8-6.4 8 12.8c25.6 43.2 44.8 88 56 136l3.2 14.4-12.8 4.8c-44.8 17.6-75.2 60.8-75.2 110.4 0 48 30.4 92.8 75.2 110.4l12.8 4.8-3.2 14.4c-12.8 48-32 94.4-56 136l-8 12.8-14.4-4.8c-44.8-19.2-97.6-9.6-131.2 24-33.6 33.6-43.2 86.4-24 131.2l6.4 12.8-12.8 8c-43.2 25.6-88 44.8-136 56l-14.4 3.2z m-352-80c33.6 17.6 67.2 32 104 43.2 25.6-49.6 76.8-83.2 134.4-83.2 57.6 0 108.8 32 134.4 83.2 36.8-9.6 70.4-24 104-43.2-17.6-52.8-4.8-113.6 35.2-153.6s100.8-54.4 153.6-36.8c17.6-32 32-67.2 43.2-104-49.6-25.6-83.2-76.8-83.2-134.4 0-57.6 33.6-108.8 83.2-134.4-9.6-36.8-24-70.4-43.2-104-52.8 17.6-113.6 3.2-153.6-36.8s-54.4-100.8-36.8-153.6c-32-17.6-67.2-32-104-43.2-25.6 49.6-76.8 83.2-134.4 83.2-57.6 0-108.8-33.6-134.4-83.2-35.2 9.6-70.4 24-104 43.2 17.6 54.4 4.8 113.6-35.2 153.6s-100.8 54.4-153.6 36.8c-17.6 32-32 67.2-43.2 104 49.6 25.6 83.2 76.8 83.2 134.4 0 57.6-33.6 108.8-83.2 134.4 9.6 35.2 24 70.4 43.2 104 52.8-17.6 113.6-4.8 153.6 36.8 40 40 54.4 99.2 36.8 153.6z m236.8-276.8c-81.6-3.2-145.6-68.8-145.6-150.4s64-147.2 145.6-150.4c83.2 3.2 147.2 68.8 147.2 150.4s-64 147.2-147.2 150.4z m0-268.8c-64 1.6-113.6 54.4-113.6 118.4s49.6 116.8 113.6 118.4c64-1.6 113.6-54.4 113.6-118.4 1.6-64-49.6-116.8-113.6-118.4z" fill="#767373" p-id="11735"></path></svg>