<?xml version="1.0" standalone="no"?><!DOCTYPE svg PUBLIC "-//W3C//DTD SVG 1.1//EN" "http://www.w3.org/Graphics/SVG/1.1/DTD/svg11.dtd"><svg t="1614934509763" class="icon" viewBox="0 0 1024 1024" version="1.1" xmlns="http://www.w3.org/2000/svg" p-id="11989" width="32" height="32" xmlns:xlink="http://www.w3.org/1999/xlink"><defs><style type="text/css"></style></defs><path d="M932.942278 515.99376c0-57.51014 35.145086-108.630265 89.460218-129.397816-12.780031-47.925117-31.950078-94.25273-55.912636-137.385336-52.717629 23.962559-113.422777 12.780031-154.957879-28.75507-39.937598-39.937598-52.717629-102.24025-28.75507-154.957878-43.132605-25.560062-89.460218-44.730109-137.385335-55.912637-20.767551 54.315133-71.887676 89.460218-129.397816 89.460219-57.51014 0-108.630265-35.145086-129.397816-89.460219-49.522621 12.780031-94.25273 31.950078-137.385336 55.912637 22.365055 51.120125 12.780031 113.422777-28.75507 154.957878-41.535101 41.535101-103.837754 51.120125-154.957878 28.75507-25.560062 43.132605-44.730109 89.460218-57.51014 137.385336 54.315133 20.767551 89.460218 71.887676 89.460218 129.397816 0 57.51014-35.145086 108.630265-89.460218 129.397816 12.780031 49.522621 31.950078 94.25273 55.912636 137.385335 52.717629-23.962559 113.422777-12.780031 154.957878 28.75507 39.937598 39.937598 52.717629 102.24025 28.755071 154.957879 43.132605 25.560062 87.862715 44.730109 137.385335 57.51014 20.767551-54.315133 71.887676-89.460218 129.397816-89.460218 59.107644 0 108.630265 36.74259 129.397816 89.460218 47.925117-12.780031 94.25273-31.950078 137.385335-55.912637-23.962559-52.717629-12.780031-113.422777 28.75507-154.957878 39.937598-39.937598 102.24025-51.120125 154.957879-28.75507 25.560062-43.132605 44.730109-89.460218 57.51014-137.385335-54.315133-22.365055-89.460218-73.485179-89.460218-130.99532zM515.99376 654.976599c-75.082683-1.597504-134.190328-63.900156-134.190328-138.982839 0-75.082683 59.107644-137.385335 134.190328-138.98284 75.082683 1.597504 134.190328 63.900156 134.190327 138.98284 1.597504 75.082683-59.107644 135.787832-134.190327 138.982839z m0 0" fill="#4A3939" p-id="11990"></path></svg>