<?xml version="1.0" standalone="no"?><!DOCTYPE svg PUBLIC "-//W3C//DTD SVG 1.1//EN" "http://www.w3.org/Graphics/SVG/1.1/DTD/svg11.dtd"><svg t="1614934550595" class="icon" viewBox="0 0 1024 1024" version="1.1" xmlns="http://www.w3.org/2000/svg" p-id="13078" width="32" height="32" xmlns:xlink="http://www.w3.org/1999/xlink"><defs><style type="text/css"></style></defs><path d="M961.6 1024H72c-32 0-57.6-25.6-57.6-57.6s25.6-57.6 57.6-57.6h889.6c32 0 57.6 25.6 57.6 57.6S993.6 1024 961.6 1024zM72 940.8c-14.4 0-25.6 11.2-25.6 25.6S57.6 992 72 992h889.6c14.4 0 25.6-11.2 25.6-25.6s-11.2-25.6-25.6-25.6H72z m800-83.2h-32c-32 0-57.6-25.6-57.6-57.6V388.8c0-32 25.6-57.6 57.6-57.6h32c32 0 57.6 25.6 57.6 57.6V800c1.6 32-25.6 57.6-57.6 57.6z m-32-494.4c-14.4 0-25.6 11.2-25.6 25.6V800c0 14.4 11.2 25.6 25.6 25.6h32c14.4 0 25.6-11.2 25.6-25.6V388.8c0-14.4-11.2-25.6-25.6-25.6h-32zM636.8 857.6h-32c-32 0-57.6-25.6-57.6-57.6V558.4c0-32 25.6-57.6 57.6-57.6h32c32 0 57.6 25.6 57.6 57.6V800c0 32-25.6 57.6-57.6 57.6z m-32-324.8c-14.4 0-25.6 11.2-25.6 25.6V800c0 14.4 11.2 25.6 25.6 25.6h32c14.4 0 25.6-11.2 25.6-25.6V558.4c0-14.4-11.2-25.6-25.6-25.6h-32zM400 857.6h-32c-32 0-57.6-25.6-57.6-57.6V472c0-32 25.6-57.6 57.6-57.6h32c32 0 57.6 25.6 57.6 57.6V800c0 32-25.6 57.6-57.6 57.6z m-32-411.2c-14.4 0-25.6 11.2-25.6 25.6V800c0 14.4 11.2 25.6 25.6 25.6h32c14.4 0 25.6-11.2 25.6-25.6V472c0-14.4-11.2-25.6-25.6-25.6h-32zM163.2 857.6h-32c-32 0-57.6-25.6-57.6-57.6V636.8c0-32 25.6-57.6 57.6-57.6h32c32 0 57.6 25.6 57.6 57.6V800c0 32-25.6 57.6-57.6 57.6z m-32-246.4c-14.4 0-25.6 11.2-25.6 25.6V800c0 14.4 11.2 25.6 25.6 25.6h32c14.4 0 25.6-11.2 25.6-25.6V636.8c0-14.4-11.2-25.6-25.6-25.6h-32z" fill="#767373" p-id="13079"></path><path d="M166.4 537.6c-6.4 0-14.4-1.6-20.8-4.8-12.8-6.4-22.4-17.6-25.6-32-3.2-14.4 1.6-28.8 9.6-40L352 201.6c14.4-17.6 40-22.4 60.8-12.8l201.6 100.8c11.2 6.4 24 3.2 33.6-6.4l144-171.2-99.2-52.8 240-51.2v193.6l-70.4-51.2-180.8 220.8c-17.6 20.8-48 28.8-72 16l-192-96c-8-3.2-16-1.6-20.8 4.8l-192 224c-11.2 11.2-24 17.6-38.4 17.6zM155.2 480c-3.2 3.2-4.8 8-3.2 12.8 1.6 4.8 3.2 8 8 9.6 6.4 3.2 12.8 1.6 17.6-3.2l192-224c14.4-17.6 40-22.4 60.8-12.8l192 96c11.2 6.4 25.6 3.2 33.6-8L854.4 105.6l44.8 32V46.4l-116.8 24 56 30.4-168 201.6c-17.6 20.8-46.4 27.2-72 14.4l-201.6-100.8c-8-3.2-16-1.6-20.8 4.8L155.2 480z" fill="#767373" p-id="13080"></path></svg>