<?xml version="1.0" standalone="no"?><!DOCTYPE svg PUBLIC "-//W3C//DTD SVG 1.1//EN" "http://www.w3.org/Graphics/SVG/1.1/DTD/svg11.dtd"><svg t="1614934526856" class="icon" viewBox="0 0 1024 1024" version="1.1" xmlns="http://www.w3.org/2000/svg" p-id="12488" width="32" height="32" xmlns:xlink="http://www.w3.org/1999/xlink"><defs><style type="text/css"></style></defs><path d="M72 915.2h880c22.4 0 41.6 19.2 41.6 41.6 0 22.4-19.2 41.6-41.6 41.6h-880c-22.4 0-41.6-19.2-41.6-41.6 0-24 17.6-41.6 41.6-41.6z m57.6-326.4h32c22.4 0 41.6 19.2 41.6 41.6v161.6c0 22.4-19.2 41.6-41.6 41.6h-32c-22.4 0-41.6-19.2-41.6-41.6V628.8c0-22.4 19.2-40 41.6-40z m233.6-163.2h32c22.4 0 41.6 19.2 41.6 41.6v324.8c0 22.4-19.2 41.6-41.6 41.6h-32c-22.4 0-41.6-19.2-41.6-41.6V467.2c1.6-22.4 19.2-41.6 41.6-41.6z m235.2 84.8h32c22.4 0 41.6 19.2 41.6 41.6v240c0 22.4-19.2 41.6-41.6 41.6h-32c-22.4 0-41.6-19.2-41.6-41.6v-240c0-22.4 17.6-41.6 41.6-41.6zM832 344h32c22.4 0 41.6 19.2 41.6 41.6v406.4c0 22.4-19.2 41.6-41.6 41.6h-32c-22.4 0-41.6-19.2-41.6-41.6V384c0-22.4 17.6-40 41.6-40z m-41.6 0" fill="#4A3939" p-id="12489"></path><path d="M142.4 465.6L368 201.6c6.4-6.4 16-9.6 24-4.8L606.4 304c14.4 6.4 30.4 3.2 40-8l158.4-188.8L728 64l176-36.8v140.8L848 126.4 654.4 368c-8 9.6-22.4 12.8-33.6 8l-209.6-105.6c-8-4.8-17.6-1.6-24 4.8L188.8 504c-9.6 11.2-25.6 14.4-38.4 8-16-8-20.8-32-8-46.4z m-25.6 28.8" fill="#4A3939" p-id="12490"></path></svg>