<?xml version="1.0" standalone="no"?><!DOCTYPE svg PUBLIC "-//W3C//DTD SVG 1.1//EN" "http://www.w3.org/Graphics/SVG/1.1/DTD/svg11.dtd"><svg t="1614934358407" class="icon" viewBox="0 0 1024 1024" version="1.1" xmlns="http://www.w3.org/2000/svg" p-id="9836" width="32" height="32" xmlns:xlink="http://www.w3.org/1999/xlink"><defs><style type="text/css"></style></defs><path d="M336 96h345.6c22.4 0 40-17.6 40-40S705.6 16 683.2 16H336c-22.4 0-40 17.6-40 40S315.2 96 336 96zM1008 148.8H12.8c-4.8 0-9.6 4.8-9.6 9.6v27.2c0 38.4 32 70.4 70.4 70.4 4.8 0 9.6 4.8 9.6 9.6V784c0 32 25.6 59.2 59.2 59.2h105.6L179.2 912c-12.8 12.8-19.2 33.6-14.4 51.2 4.8 19.2 19.2 33.6 36.8 38.4 17.6 4.8 38.4 0 51.2-12.8l142.4-142.4c1.6-1.6 4.8-3.2 6.4-3.2h216c3.2 0 4.8 1.6 6.4 3.2l140.8 142.4c9.6 9.6 24 16 38.4 16 14.4 0 27.2-4.8 36.8-16 20.8-20.8 20.8-54.4 0-75.2l-68.8-68.8h104c32 0 59.2-25.6 59.2-59.2V265.6c0-4.8 4.8-9.6 9.6-9.6 40 0 70.4-32 70.4-70.4V158.4c3.2-4.8 0-9.6-6.4-9.6zM764.8 361.6l-192 216c-9.6 11.2-19.2 14.4-30.4 12.8h-1.6c-1.6 0-1.6 0-3.2-1.6-1.6 0-1.6-1.6-3.2-1.6s-1.6-1.6-3.2-1.6l-1.6-1.6-3.2-3.2c-1.6-1.6-4.8-3.2-6.4-6.4l-86.4-86.4-126.4 142.4c-14.4 16-30.4 17.6-46.4 3.2-16-14.4-17.6-30.4-3.2-46.4l148.8-168c4.8-4.8 9.6-8 12.8-11.2 12.8-8 25.6-4.8 36.8 8l89.6 89.6 168-190.4c14.4-16 30.4-17.6 46.4-3.2 17.6 17.6 19.2 33.6 4.8 49.6z" fill="#4A3939" p-id="9837"></path></svg>