<?xml version="1.0" standalone="no"?><!DOCTYPE svg PUBLIC "-//W3C//DTD SVG 1.1//EN" "http://www.w3.org/Graphics/SVG/1.1/DTD/svg11.dtd"><svg t="1614934370349" class="icon" viewBox="0 0 1025 1024" version="1.1" xmlns="http://www.w3.org/2000/svg" p-id="10033" width="32.03125" height="32" xmlns:xlink="http://www.w3.org/1999/xlink"><defs><style type="text/css"></style></defs><path d="M681.6 121.6H342.4c-30.4 0-56-25.6-56-56S312 9.6 342.4 9.6h339.2C712 9.6 737.6 35.2 737.6 65.6c-1.6 30.4-25.6 56-56 56z m-339.2-80c-12.8 0-24 11.2-24 24s11.2 24 24 24h339.2c12.8 0 24-11.2 24-24s-11.2-24-24-24H342.4zM800 1008c-17.6 0-35.2-6.4-48-19.2l-136-137.6H409.6l-137.6 137.6c-17.6 17.6-43.2 24-65.6 17.6-24-6.4-41.6-25.6-48-48-6.4-24 0-48 17.6-65.6l40-40h-64c-40 0-73.6-33.6-73.6-73.6V276.8C33.6 273.6 0 236.8 0 192v-27.2c0-14.4 11.2-25.6 25.6-25.6h974.4c14.4 0 25.6 11.2 25.6 25.6V192c0 44.8-35.2 81.6-78.4 84.8v500.8c0 40-33.6 73.6-73.6 73.6h-64l40 41.6c25.6 27.2 25.6 70.4-1.6 96-12.8 12.8-30.4 19.2-48 19.2zM406.4 819.2h211.2c6.4 0 12.8 3.2 17.6 8l137.6 139.2c6.4 6.4 16 11.2 25.6 11.2 6.4 0 17.6-1.6 25.6-9.6 14.4-14.4 14.4-36.8 1.6-52.8l-92.8-96h140.8c22.4 0 41.6-19.2 41.6-41.6V270.4c0-14.4 11.2-25.6 25.6-25.6 28.8 0 52.8-24 52.8-52.8v-19.2H32V192c0 28.8 24 52.8 52.8 52.8 14.4 0 25.6 11.2 25.6 25.6v507.2c0 22.4 19.2 41.6 41.6 41.6h142.4l-94.4 94.4c-9.6 9.6-12.8 22.4-9.6 35.2 3.2 12.8 12.8 22.4 25.6 25.6 12.8 3.2 25.6 0 35.2-9.6l139.2-139.2c3.2-3.2 9.6-6.4 16-6.4z m-116.8-160c-11.2 0-22.4-4.8-32-14.4-11.2-9.6-17.6-20.8-17.6-33.6s3.2-24 14.4-35.2l145.6-164.8c4.8-6.4 11.2-11.2 17.6-14.4 9.6-6.4 32-12.8 54.4 11.2l76.8 76.8 153.6-172.8c9.6-11.2 20.8-17.6 33.6-17.6 12.8-1.6 24 3.2 35.2 14.4 22.4 20.8 24 46.4 4.8 68.8L585.6 587.2c-17.6 19.2-33.6 19.2-44.8 17.6h-3.2c-3.2-1.6-4.8-1.6-4.8-1.6-1.6 0-3.2-1.6-4.8-3.2-1.6 0-3.2-1.6-3.2-3.2l-1.6-1.6c-1.6-1.6-3.2-1.6-4.8-3.2l-8-8-72-72-112 128c-9.6 11.2-20.8 17.6-33.6 17.6-1.6 1.6-1.6 1.6-3.2 1.6z m147.2-235.2c-1.6 0-3.2 1.6-4.8 1.6-3.2 1.6-6.4 4.8-9.6 6.4l-145.6 164.8c-3.2 3.2-6.4 8-6.4 12.8 0 4.8 4.8 8 8 11.2 3.2 3.2 8 6.4 12.8 6.4 4.8 0 8-4.8 11.2-8l136-153.6 96 96c1.6 3.2 3.2 3.2 4.8 4.8l3.2 1.6c1.6 1.6 1.6 1.6 3.2 1.6s1.6 1.6 1.6 1.6h1.6c3.2 0 6.4 1.6 14.4-6.4l187.2-211.2c8-9.6 8-14.4-1.6-24-3.2-3.2-8-6.4-12.8-6.4-4.8 0-8 4.8-11.2 8l-176 198.4-100.8-100.8c-4.8-3.2-9.6-4.8-11.2-4.8z" fill="#767373" p-id="10034"></path></svg>