<?xml version="1.0" standalone="no"?><!DOCTYPE svg PUBLIC "-//W3C//DTD SVG 1.1//EN" "http://www.w3.org/Graphics/SVG/1.1/DTD/svg11.dtd"><svg t="1614934385530" class="icon" viewBox="0 0 1024 1024" version="1.1" xmlns="http://www.w3.org/2000/svg" p-id="10282" width="32" height="32" xmlns:xlink="http://www.w3.org/1999/xlink"><defs><style type="text/css"></style></defs><path d="M985.6 870.4c-44.8-60.8-268.8-35.2-302.4-104-67.2-137.6-40-112 3.2-145.6 44.8-33.6 40-115.2 65.6-145.6 25.6-30.4 38.4-116.8 28.8-150.4-12.8-43.2-32-19.2-35.2-52.8-6.4-70.4 11.2-128-28.8-163.2C676.8 75.2 630.4 6.4 552 6.4c-33.6 1.6-65.6 11.2-92.8 28.8-169.6-17.6-169.6 168-176 238.4-3.2 33.6-22.4 9.6-35.2 52.8-9.6 32 1.6 120 28.8 150.4 25.6 30.4 24 113.6 65.6 145.6 41.6 32 72 8 3.2 145.6-33.6 68.8-259.2 43.2-302.4 104C9.6 918.4 9.6 1020.8 9.6 1020.8h1011.2c-1.6-1.6-1.6-104-35.2-150.4z m0 0" fill="#4A3939" p-id="10283"></path></svg>