<?xml version="1.0" standalone="no"?><!DOCTYPE svg PUBLIC "-//W3C//DTD SVG 1.1//EN" "http://www.w3.org/Graphics/SVG/1.1/DTD/svg11.dtd"><svg t="1614934396582" class="icon" viewBox="0 0 1024 1024" version="1.1" xmlns="http://www.w3.org/2000/svg" p-id="10483" width="32" height="32" xmlns:xlink="http://www.w3.org/1999/xlink"><defs><style type="text/css"></style></defs><path d="M1019.2 1019.2H8v-16c0-4.8 0-104 35.2-153.6 24-33.6 86.4-43.2 152-52.8 59.2-9.6 126.4-19.2 139.2-46.4 46.4-94.4 41.6-97.6 24-107.2-6.4-3.2-14.4-8-22.4-14.4-27.2-20.8-36.8-59.2-46.4-92.8-6.4-20.8-11.2-41.6-19.2-51.2-28.8-35.2-40-124.8-30.4-160 8-25.6 19.2-33.6 28.8-38.4 1.6 0 3.2-1.6 3.2-1.6s1.6-1.6 1.6-6.4c0-4.8 0-9.6 1.6-14.4 3.2-56 9.6-150.4 68.8-200 28.8-24 65.6-33.6 110.4-30.4 28.8-16 60.8-25.6 94.4-27.2 67.2 0 110.4 44.8 145.6 80l24 24c32 27.2 32 68.8 30.4 112 0 17.6 0 36.8 1.6 56 0 6.4 1.6 6.4 1.6 8 0 0 1.6 1.6 3.2 1.6 11.2 4.8 20.8 12.8 28.8 38.4 9.6 35.2 0 124.8-30.4 160-8 9.6-12.8 28.8-17.6 49.6-8 33.6-17.6 72-48 94.4-9.6 6.4-17.6 11.2-24 14.4-17.6 9.6-22.4 12.8 24 107.2 14.4 27.2 80 38.4 139.2 46.4 65.6 9.6 128 19.2 152 52.8 35.2 48 35.2 148.8 35.2 152v16z m-979.2-32h947.2c-1.6-33.6-8-91.2-28.8-118.4-16-22.4-78.4-32-132.8-40-73.6-11.2-142.4-20.8-163.2-64-52.8-105.6-54.4-124.8-11.2-147.2 6.4-3.2 12.8-6.4 19.2-12.8 20.8-16 28.8-46.4 36.8-76.8 6.4-24 11.2-46.4 24-62.4 20.8-24 32-102.4 24-131.2-4.8-16-8-17.6-14.4-20.8-9.6-4.8-19.2-11.2-20.8-33.6-1.6-19.2 0-40 0-57.6 0-40 1.6-68.8-20.8-88l-25.6-25.6c-33.6-33.6-70.4-70.4-123.2-70.4-28.8 0-57.6 9.6-81.6 25.6l-4.8 3.2h-4.8c-40-4.8-68.8 3.2-92.8 22.4-48 41.6-54.4 126.4-57.6 177.6 0 4.8 0 9.6-1.6 14.4-1.6 22.4-11.2 28.8-20.8 33.6-4.8 3.2-9.6 4.8-14.4 20.8-8 25.6 1.6 105.6 24 131.2 12.8 14.4 19.2 38.4 25.6 64 8 30.4 16 60.8 35.2 75.2 6.4 4.8 12.8 8 19.2 11.2 41.6 22.4 40 44.8-11.2 148.8-20.8 41.6-89.6 52.8-163.2 64-54.4 8-115.2 17.6-132.8 40C48 896 41.6 955.2 40 987.2z" fill="#767373" p-id="10484"></path></svg>